<?xml version="1.0" encoding="iso-8859-1"?>
<!-- Generator: Adobe Illustrator 19.0.0, SVG Export Plug-In . SVG Version: 6.00 Build 0)  -->
<svg version="1.1" id="Capa_1" xmlns="http://www.w3.org/2000/svg" xmlns:xlink="http://www.w3.org/1999/xlink" x="0px" y="0px"
	 viewBox="0 0 512 512" style="enable-background:new 0 0 512 512;" xml:space="preserve">
<g>
	<g>
		<path d="M256,91c-57.891,0-105,47.109-105,105s47.109,105,105,105s105-47.109,105-105S313.891,91,256,91z M271,211h-30v45
			c0,8.291-6.709,15-15,15s-15-6.709-15-15V136c0-8.291,6.709-15,15-15h45c24.814,0,45,20.186,45,45
			C316,190.814,295.814,211,271,211z"/>
	</g>
</g>
<g>
	<g>
		<path d="M271,151h-30v30h30c8.276,0,15-6.724,15-15S279.276,151,271,151z"/>
	</g>
</g>
<g>
	<g>
		<path d="M256,0C148.48,0,61,88.48,61,196c0,42.437,13.447,82.808,38.892,116.748l144.111,193.246
			C246.83,509.773,251.283,512,256,512s9.17-2.227,11.997-6.006l144.111-193.246C437.553,278.808,451,238.437,451,196
			C451,88.48,363.52,0,256,0z M256,331c-74.443,0-135-60.557-135-135S181.557,61,256,61s135,60.557,135,135S330.443,331,256,331z"/>
	</g>
</g>
<g>
</g>
<g>
</g>
<g>
</g>
<g>
</g>
<g>
</g>
<g>
</g>
<g>
</g>
<g>
</g>
<g>
</g>
<g>
</g>
<g>
</g>
<g>
</g>
<g>
</g>
<g>
</g>
<g>
</g>
</svg>
